<svg xmlns="http://www.w3.org/2000/svg" xmlns:xlink="http://www.w3.org/1999/xlink" width="33.747" height="37.628" viewBox="0 0 33.747 37.628"><defs><style>.a{fill:url(#a);}</style><linearGradient id="a" x1="1" x2="0.158" y2="1" gradientUnits="objectBoundingBox"><stop offset="0" stop-color="#dc4552"/><stop offset="1" stop-color="#dd8e43"/></linearGradient></defs><g transform="translate(-815.89 -830.553)"><path class="a" d="M1874.433,37.628h-10.489a.407.407,0,0,0-.1-.05,3.773,3.773,0,0,1-3.2-3.949q0-8.339,0-16.678a3.92,3.92,0,0,1,1.21-2.929c.707-.694,1.41-1.393,2.1-2.107a.807.807,0,0,0,.208-.5c.016-1.457.007-2.914.01-4.371a2.934,2.934,0,0,1,3.063-3.075c1.393-.005,2.787-.011,4.18.006a1.038,1.038,0,0,0,.83-.336c1.208-1.225,2.44-2.427,3.663-3.637h3.227c.216.194.44.38.646.584,1.056,1.053,2.1,2.117,3.168,3.162a.8.8,0,0,0,.5.21c1.454.016,2.908.005,4.362.01a2.933,2.933,0,0,1,3.058,3.078c0,1.42.007,2.84,0,4.26a.839.839,0,0,0,.271.673q1.118,1.086,2.2,2.208a3.608,3.608,0,0,1,1.05,2.585q.008,8.557,0,17.115a3.673,3.673,0,0,1-1.272,2.785,4.3,4.3,0,0,1-2.024.956h-10.489c-.038-.028-.075-.058-.114-.084a.746.746,0,0,1-.373-.839.755.755,0,0,1,.776-.546c.1,0,.2,0,.293,0,3.091,0,6.183.006,9.274-.007a7.84,7.84,0,0,0,1.119-.159l-8.653-8.667c-.895.9-1.81,1.852-2.76,2.769a3.736,3.736,0,0,1-5.257.015c-.542-.513-1.059-1.052-1.585-1.58-.42-.422-.836-.847-1.214-1.23l-8.679,8.7a8.866,8.866,0,0,0,1.153.156c2.395.014,4.79.007,7.184.007.807,0,1.613,0,2.419,0a.734.734,0,0,1,.4,1.365c-.049.033-.1.069-.145.1m3.079-32.192q-5.153,0-10.306,0a1.467,1.467,0,0,0-1.575,1.585q0,5.714.009,11.428a.839.839,0,0,0,.226.532q4.916,4.948,9.85,9.877a2.33,2.33,0,0,0,3.607.005q4.914-4.924,9.83-9.846a.777.777,0,0,0,.248-.608q-.011-5.64-.005-11.281a1.5,1.5,0,0,0-1.689-1.693h-10.2m-15.389,11.975c0,.047-.013.1-.013.158q0,8.155.008,16.311a5.5,5.5,0,0,0,.173.964l8.6-8.623-8.771-8.81m21.97,8.776,8.65,8.668a7.132,7.132,0,0,0,.167-1.079q.016-8.06.006-16.121a2.379,2.379,0,0,0-.029-.264l-8.795,8.8M1874,3.941h7.073l-1.205-1.182c-.435-.427-.8-1.019-1.326-1.233a5.146,5.146,0,0,0-1.812-.057.627.627,0,0,0-.146,0,.423.423,0,0,0-.2.074c-.785.782-1.565,1.568-2.388,2.4m-9.849,10.1-1.627,1.417,1.627,1.648Zm26.741-.012v3.142l1.653-1.653-1.653-1.489" transform="translate(-1044.749 830.553)"/><path class="a" d="M2025.875,370.53c-.058-.041-.117-.081-.174-.123a.7.7,0,0,1-.3-.826.725.725,0,0,1,1.387,0,.7.7,0,0,1-.3.826c-.057.042-.116.082-.174.123Z" transform="translate(-1193.331 497.652)"/><path class="a" d="M1971.186,100.912a30.019,30.019,0,0,1-3.355-.231,6.96,6.96,0,1,1,8.221-7.16c.025.66.03,1.324,0,1.983a2.5,2.5,0,0,1-5-.1c-.013-.538,0-1.078-.005-1.616a2.211,2.211,0,0,0-1.966-2.342,2.367,2.367,0,0,0-2.531,1.919,2.311,2.311,0,0,0,1.625,2.684,7.01,7.01,0,0,0,1.562.119c.679.019,1.017.243,1.025.727s-.335.747-1.037.746a6.036,6.036,0,0,1-2.207-.247,3.838,3.838,0,0,1,0-7.18,3.655,3.655,0,0,1,4.077,1,3.608,3.608,0,0,1,.913,2.381c.012.551,0,1.1.005,1.653a1.046,1.046,0,0,0,1.016,1.116,1.018,1.018,0,0,0,1.062-1.066,10.044,10.044,0,0,0-.23-3.1,5.454,5.454,0,0,0-10.668,1.745,5.543,5.543,0,0,0,5.491,5.428c1.467.016,2.933,0,4.4.006a.756.756,0,0,1,.834.611.735.735,0,0,1-.771.854c-.818.01-1.638,0-2.457,0,0,.022,0,.044,0,.066" transform="translate(-1136.38 752.198)"/></g></svg>