<svg xmlns="http://www.w3.org/2000/svg" xmlns:xlink="http://www.w3.org/1999/xlink" width="33.726" height="33.72" viewBox="0 0 33.726 33.72"><defs><style>.a{fill:url(#a);}</style><linearGradient id="a" x1="1" x2="0" y2="1" gradientUnits="objectBoundingBox"><stop offset="0" stop-color="#dc4552"/><stop offset="1" stop-color="#dd8e43"/></linearGradient></defs><g transform="translate(-491 -837.907)"><path class="a" d="M29.642,262.665H19.63c-.391-.267-.524-.518-.437-.826.1-.344.352-.489.862-.489h2.8c2.129,0,4.259.019,6.388-.011A3.274,3.274,0,0,0,32.4,258.3a3.24,3.24,0,0,0-2.716-3.456,19.247,19.247,0,0,0-2.331-.07c-.655-.01-.872-.216-.873-.864q0-3.533,0-7.066v-.336a1.147,1.147,0,0,0-.116-.018c-1.032,0-2.063,0-3.1,0a2.63,2.63,0,1,1-.013-5.258c.955,0,1.91,0,2.865,0h.343v-3.025h-.4c-2.766,0-5.532.019-8.3-.016a1.085,1.085,0,0,0-1.144.667c-1.1,2.016-2.285,3.99-3.435,5.981-.057.1-.1.2-.172.338.647,0,1.25-.005,1.853,0a2.632,2.632,0,0,1,2.656,2.583,1.321,1.321,0,0,0,1.411,1.36c.79,0,1.581-.013,2.371.006a2.627,2.627,0,0,1-.138,5.252c-3.381.006-6.761,0-10.142,0a1.315,1.315,0,0,0-1.4,1.3,2.612,2.612,0,0,1-2.751,2.647q-2.585,0-5.17,0H1.339v3.025H13.6c.11,0,.22-.006.329,0a.635.635,0,0,1,.6.485.621.621,0,0,1-.249.7c-.059.046-.123.087-.185.13H0V237.352a.886.886,0,0,1,.9-.467c1.075.021,2.151.007,3.227.007h.331a6.456,6.456,0,0,1,2.855-6.776,6.17,6.17,0,0,1,7.045-.131,6.455,6.455,0,0,1,3.068,6.89H26.48v-.335c0-.942,0-1.884,0-2.826a.674.674,0,0,1,.768-.767c.637,0,1.273-.006,1.91,0a4.6,4.6,0,0,1,4.376,3.314c.073.251.127.507.19.761v21.565a1.569,1.569,0,0,0-.059.185,4.546,4.546,0,0,1-3.329,3.721c-.227.071-.464.114-.7.17m-28.31-5.66c1.945,0,3.864.017,5.782-.01A1.248,1.248,0,0,0,8.3,255.765a2.629,2.629,0,0,1,2.837-2.7q4.988,0,9.976,0a1.318,1.318,0,1,0-.012-2.629c-.7,0-1.4,0-2.107,0a2.634,2.634,0,0,1-2.789-2.65,1.312,1.312,0,0,0-1.342-1.293c-.8-.007-1.6-.01-2.4.008a.506.506,0,0,0-.345.209c-.213.318-.384.663-.586.988a.656.656,0,0,1-1.19-.009c-.189-.308-.376-.618-.54-.939a.442.442,0,0,0-.462-.263c-2.568.008-5.136.005-7.7.006-.1,0-.191.008-.3.013Zm26.487-22.786v19.265a5.317,5.317,0,0,1,4.59,1.367v-.318q0-8.443,0-16.887a3.228,3.228,0,0,0-2.508-3.274,14.362,14.362,0,0,0-2.081-.154M10.933,246.094c.252-.435.471-.811.689-1.188,1.32-2.285,2.689-4.542,3.944-6.862a4.912,4.912,0,0,0-.438-5.621,5,5,0,0,0-5.3-1.978,5.234,5.234,0,0,0-3.436,7.8c1.142,2.008,2.311,4,3.468,6l1.07,1.851M1.34,238.207v6.954h7.52c-.076-.14-.136-.253-.2-.364q-1.845-3.219-3.7-6.434a.343.343,0,0,0-.246-.15c-1.118-.01-2.236-.007-3.379-.007m25.128,4.339c-1.1,0-2.162,0-3.225,0a1.315,1.315,0,1,0,0,2.628c.955.005,1.91,0,2.865,0h.362Z" transform="translate(491 608.962)"/><path class="a" d="M184.96,599.278c-.052-.037-.105-.072-.157-.11a.652.652,0,1,1,.708,0c-.051.038-.1.073-.156.11Z" transform="translate(322.705 272.349)"/><path class="a" d="M94.513,277.14a2.634,2.634,0,1,1,2.632,2.639,2.638,2.638,0,0,1-2.632-2.639m3.95.014a1.316,1.316,0,1,0-1.321,1.31,1.32,1.32,0,0,0,1.321-1.31" transform="translate(404.788 567.388)"/></g></svg>