<svg xmlns="http://www.w3.org/2000/svg" xmlns:xlink="http://www.w3.org/1999/xlink" width="58.036" height="58" viewBox="0 0 58.036 58"><defs><style>.a{fill:url(#a);}.b{clip-path:url(#b);}</style><linearGradient id="a" x1="1" x2="0" y2="1.065" gradientUnits="objectBoundingBox"><stop offset="0" stop-color="#dd8e43"/><stop offset="1" stop-color="#dc4552"/></linearGradient><clipPath id="b"><rect class="a" width="58.036" height="58"/></clipPath></defs><g class="b"><path class="a" d="M58.036,46.776V58H0Q0,45.5.009,33a11.243,11.243,0,0,1,.175-2.14,10.278,10.278,0,0,1,10.25-8.447q4.477-.012,8.954.006a.584.584,0,0,0,.662-.438,18.552,18.552,0,0,1,2.61-4.745c.084-.112.146-.24.268-.441H4.714V14.9H6.526V11.166H4.713V9.316H28.966a2.01,2.01,0,0,1,2.322-1.875h2.426V3.725h1.872V7.408h1.863V0h1.892V7.412H41.2V1.869h1.885V7.441c.942,0,1.81-.008,2.678,0A1.86,1.86,0,0,1,47.73,9.387a14.124,14.124,0,0,1-.012,1.7c-.053.494.147.71.553.95a19.137,19.137,0,0,1,9.115,11.971c.3,1.143.438,2.33.65,3.5v2.948c-.114.725-.189,1.458-.35,2.172-.242,1.074-.543,2.135-.832,3.255l-1.742-.665.853-3.386H35.6V46.744h9.329V41.127h1.844V39.259H43.1V37.446H56.125v1.833H52.465v1.874h1.84v5.623ZM55.89,26.157a3.518,3.518,0,0,0-.027-.405,17.48,17.48,0,0,0-9.272-12.516,1.656,1.656,0,0,0-.756-.162q-7.452-.014-14.9,0a2.055,2.055,0,0,0-.907.235,17.723,17.723,0,0,0-8.145,9.1c1.175,0,2.282-.015,3.389,0a10.166,10.166,0,0,1,7.552,3.324,1.187,1.187,0,0,0,.97.422q10.738-.016,21.477-.008ZM33.642,56.1V39.285c-1.29,0-2.536-.018-3.78.015a1.246,1.246,0,0,0-.776.321q-8.052,8.017-16.077,16.062c-.11.11-.2.237-.355.418Zm-.033-24.329a2.112,2.112,0,0,0,0-.225,8.4,8.4,0,0,0-8.283-7.234c-4.983-.018-9.967,0-14.95,0A8.233,8.233,0,0,0,3.721,27.48a7.977,7.977,0,0,0-1.782,4.291Zm-31.7,22.7L17.065,39.314H1.908Zm41.186,1.593H56.163c0-2.3-.016-4.547.012-6.793.006-.523-.144-.662-.664-.659-3.946.021-7.892.011-11.838.013-.184,0-.368.015-.579.025Zm-1.945-7.4H35.619v7.421h5.529ZM34.484,28.075a10.471,10.471,0,0,1,.5,1.274c.111.447.322.569.782.568q9.861-.026,19.721-.012h.623v-1.83ZM30.918,11.145H45.839V9.367H30.918ZM52.384,43.067H46.856v3.666h5.528ZM12.121,11.211H8.455V14.9h3.666Zm1.965,3.671h3.674V11.21H14.087Zm5.6,0h3.681V11.225H19.684ZM11.19,33.69H7.515v3.673H11.19Zm7.568,3.671h3.655V33.666H18.758Zm5.627-.017h3.667V33.676H24.385Zm9.268-3.65H29.981v3.655h3.672ZM5.58,33.679H1.916v3.687H5.58Zm7.569,3.668h3.671v-3.67H13.149Zm2.756,12.586.129.087c.486-.492.992-.967,1.447-1.486a1.237,1.237,0,0,0,.3-.733c.024-1.908.014-3.816.011-5.723,0-.136-.027-.273-.055-.545-.612.633-1.143,1.168-1.652,1.723a.729.729,0,0,0-.169.451c-.011,2.076-.007,4.152-.007,6.228m-1.858-4.476-.162-.121c-.471.506-.962,1-1.4,1.525a1.275,1.275,0,0,0-.307.73c-.025,1.927-.015,3.854-.012,5.781a4.421,4.421,0,0,0,.072.493c.608-.632,1.138-1.167,1.645-1.722a.73.73,0,0,0,.161-.453c.01-2.078.007-4.155.007-6.233m7.485-6.171h-.971c-.76,0-.91.154-.91.931q0,2.74,0,5.481c0,.177.017.354.026.531l.135.069c.53-.556,1.065-1.108,1.586-1.673a.567.567,0,0,0,.129-.353c.008-1.636.005-3.271.005-4.987M8.417,56.122H9.34c.823,0,.965-.139.965-.943q0-2.771,0-5.543c0-.157-.019-.315-.041-.664-.644.677-1.177,1.229-1.7,1.793a.569.569,0,0,0-.142.349c-.009,1.637-.006,3.273-.006,5.008M29.108,11.215H25.319v2.969c1.172-.78,2.351-1.549,3.509-2.351.144-.1.173-.368.28-.618M23.454,39.307V42.27l2.966-2.963ZM6.539,53.072l-3,3h3Zm43.99-13.749H48.7V41.1h1.825Z" transform="translate(0)"/></g></svg>