<svg xmlns="http://www.w3.org/2000/svg" xmlns:xlink="http://www.w3.org/1999/xlink" width="58.525" height="58.539" viewBox="0 0 58.525 58.539"><defs><style>.a{fill:url(#a);}</style><linearGradient id="a" x1="1" x2="0" y2="1" gradientUnits="objectBoundingBox"><stop offset="0" stop-color="#dd8e43"/><stop offset="1" stop-color="#dc4552"/></linearGradient></defs><g transform="translate(-959.625 -6104.539)"><path class="a" d="M75.24,143.841v-1.887H89.916c1.073,0,1.346-.278,1.346-1.369q0-19.407,0-38.814c0-1.073-.277-1.345-1.369-1.345H37.859c-1.075,0-1.346.276-1.346,1.368q0,19.407,0,38.814c0,1.075.277,1.347,1.367,1.347q10.059,0,20.117-.01a1.586,1.586,0,0,0,.868-.235,8.449,8.449,0,0,1,11.13.973,3.978,3.978,0,0,1,.307.412l5.161-5.546,1.383,1.263c-.168.187-.307.346-.451.5-1.538,1.657-3.072,3.319-4.622,4.965a.625.625,0,0,0-.161.8,8.114,8.114,0,0,1-1.257,8.938,7.985,7.985,0,0,1-8.545,2.752,8.476,8.476,0,0,1-5.309-12.4c.083-.15.169-.3.3-.531H37.811a2.866,2.866,0,0,1-3.186-3.163q0-19.5,0-38.991a2.858,2.858,0,0,1,3.14-3.149H90.035a2.848,2.848,0,0,1,3.114,3.116q0,19.525,0,39.05A2.862,2.862,0,0,1,90,143.841q-7.05,0-14.1,0Zm-5.245,2.366-6.188,6.654-3.5-4.68,1.508-1.12,2.155,2.857,2.539-2.732,2.5-2.7c-1.705-2.582-5.713-3.3-8.544-1.571a6.6,6.6,0,0,0,6.477,11.5,6.525,6.525,0,0,0,3.054-8.208" transform="translate(925 6006.002)"/><path class="a" d="M58.584,140.427q0-7.845,0-15.69a1.953,1.953,0,0,1,2.225-2.244H80.925a1.935,1.935,0,0,1,2.2,2.211q0,15.719,0,31.438a1.938,1.938,0,0,1-2.2,2.216q-10.087,0-20.174,0a1.927,1.927,0,0,1-2.17-2.182q0-7.874,0-15.748m9.888,2.158a4.456,4.456,0,0,1-2.155-2.92,4.816,4.816,0,0,0-.813-1.8c-.156-.226-.308-.457-.445-.695A6.013,6.013,0,0,1,67.77,128.7a8.349,8.349,0,0,1,4.106-.524,6.016,6.016,0,0,1,5.58,5.761,6.189,6.189,0,0,1-1.1,3.721,4.121,4.121,0,0,0-.793,1.357,5.087,5.087,0,0,1-2.319,3.579c.171.722.171.724.832.866a11.278,11.278,0,0,1,6.829,4.4c.076.1.158.2.29.362V124.41H60.519v23.822c.144-.186.227-.293.309-.4a11.126,11.126,0,0,1,6.849-4.362.85.85,0,0,0,.794-.884m-.161,2.707c-4.866.51-8.922,6.364-7.754,11.15h3.691c0-1.477-.01-2.926,0-4.375a3.091,3.091,0,0,0-.63-2.442l1.3-1.346a3.949,3.949,0,0,1,1.207,2.81c.026,1.257.008,2.516.009,3.774,0,.524,0,1.048,0,1.583H67.2a2.285,2.285,0,0,0,.1-.294c.483-2.666.907-5.344,1.473-7.992a5.013,5.013,0,0,0-.459-2.869M81.187,156.47c.626-5.6-2.934-10.687-7.757-11.173a3.722,3.722,0,0,0-.556,2.4q.423,2.348.854,4.694.371,2.023.746,4.039h1.1c0-1.77-.007-3.5,0-5.225a3.971,3.971,0,0,1,1.155-2.868l1.277,1.206a4.626,4.626,0,0,0-.506,1.346c-.055,1.841-.023,3.684-.023,5.548a2.278,2.278,0,0,0,.257.033c1.139,0,2.277,0,3.449,0M68.025,137.324c0,.432-.012.865,0,1.3a2.849,2.849,0,0,0,2.533,2.735,2.773,2.773,0,0,0,3.02-2.161,9.08,9.08,0,0,0,.1-1.874c0-2.254.213-1.8-1.755-2.884a1.967,1.967,0,0,0-2.146.006c-1.978,1.082-1.743.631-1.756,2.881m7.412-2.259c.067-.332.112-.478.124-.627a4.064,4.064,0,0,0-3.148-4.257,10.511,10.511,0,0,0-2.283-.126,4.108,4.108,0,0,0-3.973,3.714,8.1,8.1,0,0,0,.041,1.095c.718-1.034.822-1.123,2.4-1.914.736-.368,1.476-1.019,2.212-1.017.759,0,1.515.648,2.275,1a3.78,3.78,0,0,1,2.347,2.128m-2.886,21.38c-.544-2.858-.987-5.688-1.579-8.487l-.268.01-1.547,8.477Zm-2.185-13.2a1.782,1.782,0,0,0-.03,2.039c.126.284-.006.795.52.793s.392-.51.519-.8a1.784,1.784,0,0,0-.026-2.037Z" transform="translate(904.817 5985.821)"/><path class="a" d="M238.495,154q-5.014,0-10.027,0a1.926,1.926,0,0,1-2.183-2.17c0-1.12-.006-2.241,0-3.362a1.893,1.893,0,0,1,2.037-2.017q10.234-.005,20.467,0a1.886,1.886,0,0,1,2.035,2.02q.012,1.769,0,3.539a1.883,1.883,0,0,1-2.007,1.988q-5.161.01-10.322,0m10.416-5.623H228.219v3.707h20.693Z" transform="translate(763.547 5965.645)"/><rect class="a" width="20.712" height="1.815" transform="translate(991.747 6123.458)"/><rect class="a" width="20.691" height="1.82" transform="translate(991.748 6130.995)"/><rect class="a" width="16.916" height="1.819" transform="translate(991.766 6127.231)"/><path class="a" d="M238.159,304.753c-.172-2.094.7-2.824,2.8-2.831,2.232-.007,2.9.762,2.906,2.878s-.728,2.864-2.863,2.861c-2.108,0-3.017-.672-2.837-2.908m1.92.945h1.812v-1.822H240.08Z" transform="translate(753.56 5834.67)"/><path class="a" d="M291.732,304.958c.171,2.14-.658,2.886-2.864,2.882-2.091,0-2.971-.74-2.8-2.829.027-.332-.005-.668.006-1a1.882,1.882,0,0,1,1.888-1.867c.57-.014,1.14-.006,1.71,0a1.9,1.9,0,0,1,2.062,2.052c0,.255,0,.511,0,.766m-3.751.927h1.829v-1.818h-1.829Z" transform="translate(713.202 5834.491)"/><path class="a" d="M334,304.843c-.175-2.133.728-2.969,2.785-2.807.352.028.708-.009,1.061.009a1.875,1.875,0,0,1,1.81,1.822c.024.667.024,1.337,0,2a1.874,1.874,0,0,1-1.865,1.827c-.609.018-1.218.012-1.827,0A1.889,1.889,0,0,1,334,305.728c0-.295,0-.589,0-.884m1.922.933h1.809v-1.819h-1.809Z" transform="translate(672.822 5834.589)"/><rect class="a" width="1.835" height="1.81" transform="translate(1010.626 6127.236)"/></g></svg>