<svg xmlns="http://www.w3.org/2000/svg" xmlns:xlink="http://www.w3.org/1999/xlink" width="58.102" height="58" viewBox="0 0 58.102 58"><defs><style>.a{fill:url(#a);}.b{clip-path:url(#b);}</style><linearGradient id="a" x1="0.935" y1="-0.044" x2="0.087" y2="1.106" gradientUnits="objectBoundingBox"><stop offset="0" stop-color="#dd8e43"/><stop offset="1" stop-color="#dc4552"/></linearGradient><clipPath id="b"><rect class="a" width="58.102" height="58"/></clipPath></defs><g class="b"><path class="a" d="M15.484,26.236h-6.1v.679c0,5.671.01,11.342-.005,17.013A4.671,4.671,0,0,1,4.494,48.65,4.623,4.623,0,0,1,.036,44.222q-.072-7.717,0-15.434A4.6,4.6,0,0,1,4.59,24.344c2.4-.032,4.8-.009,7.2-.01h.745c-.3-.607-.543-1.169-.853-1.692-.074-.126-.366-.171-.558-.172-2.771-.011-5.543,0-8.315-.012A2.8,2.8,0,0,1,.171,20.583a2.643,2.643,0,0,1,.868-3.047,3.354,3.354,0,0,1,1.756-.654q5.034-.091,10.07-.013a4.428,4.428,0,0,1,3.908,2.384c.147.251.28.51.421.765.008.014.032.02.085.05a3.109,3.109,0,0,1,2.136-1.341,1.175,1.175,0,0,0,.521-.344Q29.074,10,38.2,1.592A5.588,5.588,0,0,1,42.263,0C45.326.044,48.39.013,51.5.013V5.625h-.614c-2.6,0-5.192-.007-7.787.012a1.018,1.018,0,0,0-.7.268q-5.313,6.27-10.591,12.569c-.073.086-.13.185-.212.3a3.007,3.007,0,0,1,2.154,3.358,19.814,19.814,0,0,0,.009,2.279,1.342,1.342,0,0,0,.339.8q2.416,2.466,4.882,4.882a1.222,1.222,0,0,1,.393.97c-.014,3.449-.008,6.9-.008,10.348v.667c.194.012.344.029.494.03q3.367,0,6.734,0c.772,0,1.218-.363,1.2-.961-.017-.578-.443-.906-1.193-.909-.839,0-1.679.009-2.518,0a2.8,2.8,0,1,1,.01-5.607c.82-.011,1.64,0,2.459,0,.946,0,1.245-.307,1.246-1.27,0-1.108,0-2.217,0-3.366h1.842c0,1.383.093,2.768-.026,4.134a2.7,2.7,0,0,1-2.76,2.37c-.878.014-1.757,0-2.635.005-.687.006-1.105.371-1.1.941s.423.921,1.116.927c.781.007,1.561,0,2.342,0a2.818,2.818,0,1,1,.026,5.611c-2.381,0-4.761,0-7.189,0v9.355H52.077c.117,0,.234,0,.351,0a.943.943,0,0,0,.984-.942.93.93,0,0,0-1-.922c-1.249-.015-2.5.01-3.747-.012a2.8,2.8,0,0,1-2.6-1.925,2.651,2.651,0,0,1,.971-3.066,3.646,3.646,0,0,1,1.783-.587c2.066-.071,4.137-.02,6.206-.036a1.233,1.233,0,0,0,.811-.213,1.13,1.13,0,0,0,.331-.9,1.478,1.478,0,0,0-.791-.719,2.81,2.81,0,0,0-.985-.033,2.8,2.8,0,0,1-2.839-2.809c-.017-1.223,0-2.447,0-3.7h1.872v1.183c0,.741,0,1.481,0,2.222,0,.923.31,1.226,1.218,1.243a6.489,6.489,0,0,1,1.278.086,2.776,2.776,0,0,1,2.177,2.977,2.806,2.806,0,0,1-2.748,2.538c-2.03.024-4.06.007-6.089.008-.156,0-.313-.006-.468,0a.94.94,0,0,0-.985.939.927.927,0,0,0,1,.924c1.229.015,2.459-.007,3.689.01a2.8,2.8,0,0,1,.493,5.557,4.34,4.34,0,0,1-.816.049c-4.2,0-8.393,0-12.589.016a2.122,2.122,0,0,0-.813.306,18.952,18.952,0,0,1-2.714,1.295A37.8,37.8,0,0,1,25.674,58a41.6,41.6,0,0,1-10.685-1.055A13.042,13.042,0,0,1,12.3,55.849a1.984,1.984,0,0,1-1.053-1.936q.03-11.43,0-22.859a1.218,1.218,0,0,1,.4-.966c1.147-1.114,2.27-2.253,3.4-3.384.132-.132.254-.273.434-.467M37.462,37.47H13.176V50.5H37.462ZM7.509,26.205c-.939,0-1.8,0-2.652,0A2.81,2.81,0,0,0,1.889,29.18c-.005,1.987,0,3.975,0,5.962,0,2.942-.012,5.884.005,8.826a2.808,2.808,0,1,0,5.614-.108q.008-8.592,0-17.184v-.471M49.647,1.883c-2.616,0-5.17.007-7.723,0a3.119,3.119,0,0,0-2.217.88q-8.476,7.8-16.963,15.586c-.1.094-.185.21-.331.376,2.106,0,4.115-.016,6.122.012a1.185,1.185,0,0,0,1.025-.5c3.778-4.51,7.576-9,11.35-13.519a2.5,2.5,0,0,1,2.126-.977c1.989.039,3.979.012,5.968.012h.642ZM13.156,35.518H37.462V31.849H13.156ZM37.489,52.434H13.13a9.834,9.834,0,0,1-.009,1.193.8.8,0,0,0,.629.959,22.729,22.729,0,0,0,2.459.725,49.458,49.458,0,0,0,17.159.2,25.314,25.314,0,0,0,3.59-.991.894.894,0,0,0,.507-.593,9.4,9.4,0,0,0,.024-1.493m-1.352-22.51c-1.178-1.177-2.276-2.255-3.348-3.358a1.157,1.157,0,0,0-.922-.367c-3.784.011-7.569.006-11.353.007a6.2,6.2,0,0,0-2.257.074c-.668.282-1.139,1.029-1.7,1.569q-1.016.981-2.038,1.956l.1.119Zm-4.269-5.589c0-.937.009-1.808,0-2.68-.01-.715-.363-1.05-1.1-1.06-.6-.008-1.209,0-1.813,0q-4.5,0-9.008,0c-.874,0-1.186.322-1.193,1.2,0,.311,0,.623,0,.934.005,1.124.474,1.6,1.565,1.6H31.868m-14.885,0a8.657,8.657,0,0,0-.349-1.185c-.4-.864-.865-1.7-1.268-2.562a3.01,3.01,0,0,0-3.013-1.875c-2.866.028-5.733.008-8.6.008-.312,0-.625-.014-.936.006a.927.927,0,0,0-.925.935.936.936,0,0,0,.938.926c.155.012.312,0,.468,0,2.671,0,5.343.017,8.014-.009a2.1,2.1,0,0,1,2.125,1.323c.324.707.678,1.4,1.052,2.083a.686.686,0,0,0,.459.329c.619.038,1.241.015,2.036.015" transform="translate(0 0)"/><path class="a" d="M291.123,61.431a7.5,7.5,0,1,1-14.883-1.514,9.192,9.192,0,0,1,.913-2.682c1.335-2.573,2.764-5.1,4.146-7.645a2.548,2.548,0,0,1,4.647-.02q2.1,3.872,4.222,7.737a8.08,8.08,0,0,1,.955,4.125m-1.874-.343.143-.04a12.951,12.951,0,0,0-.721-2.493c-1.42-2.75-2.931-5.453-4.423-8.165-.346-.629-.9-.62-1.25.015-1.482,2.7-2.986,5.38-4.408,8.107a5.708,5.708,0,0,0,.891,6.425,5.616,5.616,0,0,0,9.768-3.85" transform="translate(-233.022 -40.571)"/><rect class="a" width="1.799" height="1.798" transform="translate(51.575 29.995)"/><rect class="a" width="1.821" height="1.788" transform="translate(51.564 33.726)"/><path class="a" d="M141.876,247.719c1.08,1.446,2.143,2.789,3.116,4.195a3.675,3.675,0,0,1-.622,4.824,3.74,3.74,0,0,1-5.715-4.692,5.483,5.483,0,0,1,.329-.482c.944-1.258,1.89-2.514,2.891-3.844m0,3.113c-.562.755-1.087,1.408-1.552,2.1a1.8,1.8,0,0,0,.325,2.427,1.835,1.835,0,0,0,2.411.032,1.794,1.794,0,0,0,.388-2.417c-.467-.712-1.007-1.377-1.573-2.143" transform="translate(-116.562 -209.041)"/><rect class="a" width="1.814" height="1.801" transform="translate(15.028 39.342)"/><rect class="a" width="1.794" height="1.802" transform="translate(33.787 39.342)"/><rect class="a" width="1.791" height="1.819" transform="translate(15.05 43.085)"/><rect class="a" width="1.822" height="1.777" transform="translate(33.754 43.089)"/><rect class="a" width="1.788" height="1.816" transform="translate(15.052 46.829)"/><rect class="a" width="1.811" height="1.798" transform="translate(33.768 46.828)"/><path class="a" d="M324.3,118.274V116.7a10.006,10.006,0,0,0,1.505-1.112,1.649,1.649,0,0,0,.248-1.713,18.179,18.179,0,0,0-.791-1.673l1.521-.836a4.406,4.406,0,0,1,.9,4.721,3.609,3.609,0,0,1-3.384,2.187" transform="translate(-273.665 -93.978)"/></g></svg>