<svg xmlns="http://www.w3.org/2000/svg" xmlns:xlink="http://www.w3.org/1999/xlink" width="58.982" height="58.939" viewBox="0 0 58.982 58.939"><defs><style>.a{fill:url(#a);}</style><linearGradient id="a" x1="1" x2="0" y2="1" gradientUnits="objectBoundingBox"><stop offset="0" stop-color="#dd8e43"/><stop offset="1" stop-color="#dc4552"/></linearGradient></defs><g transform="translate(-1622.984 -6432.907)"><path class="a" d="M705.611,476.317v7.621h6.616c.009-.194.026-.386.026-.578q0-10.374.009-20.749a.712.712,0,0,0-.5-.783,2.374,2.374,0,0,1-1.212-3.149c.761-1.653,1.557-3.3,2.445-4.882a2.424,2.424,0,0,1,4.222.009c.885,1.589,1.692,3.226,2.442,4.884.617,1.363-.086,2.683-1.677,3.355V483.94h5.658c.009-.2.025-.391.025-.583,0-4.7,0-9.393.01-14.09a.714.714,0,0,0-.5-.78,2.377,2.377,0,0,1-1.207-3.151c.762-1.652,1.558-3.294,2.445-4.882a2.42,2.42,0,0,1,4.191-.034c.908,1.6,1.715,3.259,2.473,4.934.615,1.359-.085,2.669-1.68,3.355v15.232h8.538v-.648c0-4.716-.009-9.433.016-14.149a2.6,2.6,0,0,1,.357-1.2c.377-.671.841-1.294,1.3-1.984-.611-.766-1.207-1.55-1.841-2.3a7.1,7.1,0,0,1-1.739-4.921c.029-1.149-.014-2.3.011-3.448a5.75,5.75,0,0,0-.7-2.908c-.337-.627-.658-1.265-.953-1.913a2.441,2.441,0,0,1,2.352-3.552,11.227,11.227,0,0,1,2.528.74,2.9,2.9,0,0,1,.539.329v-6.066c-.68-.152-1.35-.317-2.027-.438a.557.557,0,0,0-.425.2c-2.527,3.1-5.037,6.221-7.569,9.32-.256.314-.066.492.06.723a3.8,3.8,0,1,1-6.868,3.206,3.913,3.913,0,0,1,.1-3.02l-3.5-2.924a6.742,6.742,0,0,1-7.728.869l-5.491,7.18c1.595,3.038,1.4,5.2-.6,6.834a4.752,4.752,0,0,1-7.179-5.966c1.208-2.178,3.427-2.9,6.251-2.005l5.511-7.2a6.669,6.669,0,0,1-1.76-5.955,6.466,6.466,0,0,1,2.165-3.731,6.641,6.641,0,0,1,8.339-.318,6.711,6.711,0,0,1,1.714,8.836l3.5,2.917a3.859,3.859,0,0,1,3.586-.464.444.444,0,0,0,.386-.128q3.651-4.5,7.281-9.015c.01-.013,0-.039.01-.111-.23-.1-.478-.21-.725-.321a20.07,20.07,0,0,1-5.435-3.683,2.991,2.991,0,0,1,.007-4.436,19.025,19.025,0,0,1,25.874-.6c.2.168.4.329.588.5a3.019,3.019,0,0,1,.016,4.642A19.291,19.291,0,0,1,746,441.813c-.136.023-.269.064-.429.1v2.318c1.275.322,2.569.651,3.865.976,1.746.438,3.495.864,5.238,1.313a2.826,2.826,0,0,1,2.285,2.926q.009,4.815,0,9.631a6.647,6.647,0,0,1-1.434,4.19c-.694.89-1.4,1.767-2.138,2.687.458.69.938,1.364,1.359,2.073a2.042,2.042,0,0,1,.3.98c.019,4.756.013,9.512.013,14.268v.683h1.858v1.884h-58.9V484h1.836v-7.689c-.12-.052-.262-.109-.4-.175a2.437,2.437,0,0,1-1.223-3.3c.743-1.575,1.532-3.128,2.334-4.673a2.474,2.474,0,0,1,4.357,0c.8,1.545,1.6,3.1,2.334,4.674.667,1.428.005,2.783-1.643,3.473m39.945-19.966h-1.911V436.994c0-.178.007-.357,0-.535a.948.948,0,1,0-1.9-.024c-.012.178,0,.356,0,.535q0,9.363,0,18.726v.662h-1.9c0-1.478.014-2.921,0-4.363a3.189,3.189,0,0,0-2.864-3.182.663.663,0,0,0-.751,1.039c.241.584.543,1.144.84,1.7a7.435,7.435,0,0,1,.882,3.711c-.026,1.268,0,2.536-.006,3.8a4.8,4.8,0,0,0,1.07,3.079c.652.823,1.3,1.652,1.979,2.449a1.022,1.022,0,0,0,.675.341q4.845.033,9.69,0a.948.948,0,0,0,.634-.306c.7-.831,1.376-1.689,2.051-2.545a4.285,4.285,0,0,0,1-2.619c.033-3.368.018-6.737.019-10.106a.9.9,0,0,0-.616-.923c-.4-.139-.822-.215-1.31-.338v8.26h-1.879v-8.742l-1.938-.471v9.207h-1.865v-9.683l-1.9-.469Zm-5.716,27.589h13.318v-.685c0-4.039-.057-8.079.03-12.116a5.429,5.429,0,0,0-1.2-3.878.95.95,0,0,0-.825-.411c-2.712.014-5.428.092-8.135-.029a2.488,2.488,0,0,0-2.719,1.473,3.537,3.537,0,0,0-.481,1.652c.022,4.435.012,8.87.012,13.3ZM716.07,460.2c.456,0,.832.014,1.206,0,.584-.027.829-.4.575-.922q-1.065-2.187-2.173-4.353a.6.6,0,0,0-1.144,0q-1.112,2.163-2.172,4.353c-.253.52,0,.891.582.917.389.017.779,0,1.226,0v23.739h1.9Zm11.408,6.659c.436,0,.79.009,1.145,0,.661-.019.911-.39.626-.971-.7-1.42-1.4-2.837-2.135-4.238a.9.9,0,0,0-.615-.438c-.182-.012-.461.225-.563.422-.739,1.421-1.453,2.855-2.155,4.295-.255.523-.015.9.565.928.39.019.781,0,1.23,0V483.94h1.9Zm-17.125-22.851a4.755,4.755,0,1,0,4.789-4.734,4.768,4.768,0,0,0-4.789,4.734m29.488-5.779c0-.606,0-1.139,0-1.673a2.857,2.857,0,1,1,5.706.024c0,.54,0,1.079,0,1.679a4.691,4.691,0,0,0,1.651-5.263,4.755,4.755,0,0,0-9.1.308,4.611,4.611,0,0,0,1.746,4.925m-38.03,36.24v9.465h1.882v-9.465c.432,0,.8.011,1.174,0,.628-.022.881-.389.613-.938q-1.052-2.159-2.146-4.3c-.306-.6-.87-.613-1.17-.027q-1.112,2.163-2.171,4.352c-.251.516,0,.884.593.909.373.016.748,0,1.225,0m45.168-34.808a17.447,17.447,0,0,0,7.738-4.363,1.046,1.046,0,0,0-.058-1.624c-.525-.481-1.072-.942-1.639-1.373a16.765,16.765,0,0,0-6-2.911,6.816,6.816,0,0,1-.039,10.272m-8.594-10.233a17.054,17.054,0,0,0-7.714,4.3,1.074,1.074,0,0,0,.057,1.629c.494.457,1.014.888,1.546,1.3a16.7,16.7,0,0,0,6.183,3.014,6.8,6.8,0,0,1-2.415-5.121,6.7,6.7,0,0,1,2.343-5.121m-32.791,30.76a2.852,2.852,0,1,0-2.87,2.865,2.865,2.865,0,0,0,2.87-2.865m22.83-6.669a1.9,1.9,0,1,0-1.864,1.923,1.916,1.916,0,0,0,1.864-1.923" transform="translate(925 6006.002)"/><path class="a" d="M790.688,522.441a2.852,2.852,0,1,1,2.847-2.827,2.865,2.865,0,0,1-2.847,2.827m-.007-1.9a.947.947,0,1,0-.943-.95.958.958,0,0,0,.943.95" transform="translate(849.424 5930.439)"/></g></svg>