<svg xmlns="http://www.w3.org/2000/svg" xmlns:xlink="http://www.w3.org/1999/xlink" width="58.103" height="58.101" viewBox="0 0 58.103 58.101"><defs><style>.a{fill:url(#a);}</style><linearGradient id="a" x1="1" x2="0" y2="1" gradientUnits="objectBoundingBox"><stop offset="0" stop-color="#dd8e43"/><stop offset="1" stop-color="#dc4552"/></linearGradient></defs><g transform="translate(-925 -6533.539)"><path class="a" d="M58.1,563.846c-1.382.5-2.769.986-4.142,1.508a4.573,4.573,0,0,0-.99,2.879c.505,1.118,1,2.244,1.527,3.35a.567.567,0,0,1-.127.775q-4.788,4.76-9.547,9.548a.569.569,0,0,1-.777.116q-1.687-.8-3.406-1.54a1.234,1.234,0,0,0-.729-.009c-.289.072-.544.289-.833.345a2.1,2.1,0,0,0-1.673,1.734c-.263.923-.668,1.8-.994,2.71a.476.476,0,0,1-.525.376q-6.836-.016-13.672,0a.477.477,0,0,1-.517-.385c-.434-1.188-.866-2.377-1.338-3.55a1.448,1.448,0,0,0-.547-.566c-.2-.134-.48-.144-.677-.278a2.294,2.294,0,0,0-2.665.044c-.784.447-1.647.753-2.465,1.144a.5.5,0,0,1-.683-.1q-4.8-4.827-9.628-9.628a.5.5,0,0,1-.1-.684c.536-1.146,1.064-2.3,1.562-3.458a1.217,1.217,0,0,0,.012-.729c-.079-.307-.3-.579-.366-.886a1.993,1.993,0,0,0-1.6-1.587c-.94-.273-1.84-.682-2.765-1.009a.539.539,0,0,1-.436-.6q.02-6.779,0-13.559a.541.541,0,0,1,.435-.6c1.137-.408,2.261-.852,3.4-1.256a.963.963,0,0,0,.719-.705,1.693,1.693,0,0,1,.226-.578,2.326,2.326,0,0,0-.067-2.714c-.431-.772-.735-1.614-1.116-2.415a.5.5,0,0,1,.1-.684q4.828-4.8,9.628-9.628a.5.5,0,0,1,.683-.106c1.128.529,2.26,1.051,3.408,1.534a1.455,1.455,0,0,0,.829.015c.308-.069.582-.29.89-.357a1.919,1.919,0,0,0,1.519-1.526c.322-1.1.756-2.168,1.142-3.249H36.317c.386,1.082.82,2.15,1.142,3.25a1.916,1.916,0,0,0,1.517,1.526c.326.071.615.3.94.384a1.205,1.205,0,0,0,.729-.013q1.692-.724,3.352-1.52a.639.639,0,0,1,.871.139q4.713,4.753,9.466,9.466a.639.639,0,0,1,.141.871c-.53,1.107-1.025,2.23-1.531,3.347a4.74,4.74,0,0,0,1.015,2.828c1.374.519,2.761,1.007,4.142,1.506ZM5.688,541.6c.507,1.115,1.037,2.242,1.523,3.388a1.141,1.141,0,0,1,0,.776c-.388,1.023-.809,2.034-1.252,3.034a1.064,1.064,0,0,1-.507.518c-1.031.42-2.077.8-3.125,1.18a.553.553,0,0,0-.45.6q.02,5.474,0,10.948a.551.551,0,0,0,.43.616c1.015.356,2.013.759,3.027,1.118a1.006,1.006,0,0,1,.68.665c.367.99.814,1.95,1.183,2.939a1.226,1.226,0,0,1-.006.824c-.428,1.028-.9,2.036-1.375,3.045a.472.472,0,0,0,.1.634q3.924,3.9,7.823,7.82a.473.473,0,0,0,.633.114c1.024-.483,2.052-.962,3.093-1.406a1.061,1.061,0,0,1,.726-.011q1.558.6,3.084,1.278a1.063,1.063,0,0,1,.511.514c.412,1.014.792,2.041,1.158,3.073a.62.62,0,0,0,.69.491q5.417-.026,10.834,0a.62.62,0,0,0,.685-.5c.366-1.031.746-2.059,1.158-3.073a1.064,1.064,0,0,1,.515-.511q1.525-.678,3.083-1.281a.984.984,0,0,1,.675,0q1.562.667,3.094,1.4a.535.535,0,0,0,.724-.135q3.857-3.885,7.741-7.741a.537.537,0,0,0,.113-.728c-.468-.99-.931-1.983-1.349-2.994a1.23,1.23,0,0,1,0-.825c.377-1.007.789-2,1.227-2.983a1.145,1.145,0,0,1,.545-.553c1.012-.416,2.04-.8,3.072-1.158a.621.621,0,0,0,.476-.7q-.023-5.417,0-10.834a.586.586,0,0,0-.456-.657c-1-.348-1.978-.745-2.976-1.093a1.056,1.056,0,0,1-.715-.7q-.541-1.459-1.188-2.876a.942.942,0,0,1,.01-.895c.53-1.12,1.028-2.255,1.5-3.309l-8.383-8.394c-1.111.506-2.256,1.04-3.414,1.54a.979.979,0,0,1-.675.015q-1.582-.615-3.135-1.3a.984.984,0,0,1-.478-.475c-.416-1.032-.806-2.076-1.178-3.126a.588.588,0,0,0-.65-.465q-5.446.02-10.891,0a.588.588,0,0,0-.647.47c-.371,1.05-.759,2.094-1.175,3.127a.983.983,0,0,1-.481.472c-1.018.449-2.046.877-3.084,1.277a1.059,1.059,0,0,1-.725,0c-1.16-.5-2.3-1.032-3.411-1.536L5.688,541.6" transform="translate(925 6006.002)"/><path class="a" d="M135.15,665.542a28.611,28.611,0,0,1-3.621-.029,6.079,6.079,0,0,1-4.406-2.895c-1.617-2.486-3.242-4.969-4.794-7.5a15,15,0,0,1-1.96-10.31,14.716,14.716,0,0,1,7.292-10.859,14.974,14.974,0,0,1,17.022,1.368,15.139,15.139,0,0,1,5.4,13.695,14.9,14.9,0,0,1-2.386,6.711q-2.147,3.336-4.29,6.675a6.663,6.663,0,0,1-5.929,3.248c-.775,0-1.55,0-2.326,0q0-.054,0-.109m4-9.546c.345-1.767.678-3.526,1.039-5.28a.729.729,0,0,0-.287-.814,2.692,2.692,0,0,1,.09-4.193.939.939,0,0,0,.4-1.045c-.452-3.293-.9-6.586-1.326-9.882-.046-.359-.2-.464-.508-.546a13.111,13.111,0,0,0-6.776,0,.653.653,0,0,0-.547.6c-.67,3.388-1.355,6.774-2.011,10.165a.838.838,0,0,0,.215.666,2.774,2.774,0,0,1,.222,4.159.714.714,0,0,0-.153.569q.733,2.645,1.53,5.272a.654.654,0,0,0,.452.364A29.271,29.271,0,0,0,139.15,656m1.992-.394.119.192c1.61-.514,3.224-1.016,4.825-1.556a1.21,1.21,0,0,0,.6-.525,12.7,12.7,0,0,0,1.6-5.782,13.181,13.181,0,0,0-5.623-11.786c-.489-.36-1.037-.639-1.665-1.021.156,1.182.291,2.208.427,3.234.277,2.1.547,4.193.846,6.286a.777.777,0,0,0,.375.522,2.873,2.873,0,0,1,1.9,2.75,2.825,2.825,0,0,1-2.121,2.633.6.6,0,0,0-.359.338c-.325,1.568-.623,3.142-.928,4.714M129.254,635.23c-.211.11-.31.158-.406.212a13.583,13.583,0,0,0-5.655,17.347,2.836,2.836,0,0,0,2.013,1.829c1.267.326,2.516.727,3.894,1.131-.5-1.729-.947-3.287-1.422-4.835a.653.653,0,0,0-.447-.314,2.836,2.836,0,0,1-2.344-2.626,2.771,2.771,0,0,1,1.974-2.793.649.649,0,0,0,.532-.606c.269-1.428.574-2.85.859-4.276.329-1.645.651-3.292,1-5.071M144.839,656.7a33.535,33.535,0,0,1-19.293.007c.459.715.868,1.3,1.221,1.922a1.059,1.059,0,0,0,.839.566c1.455.213,2.9.5,4.365.646a34.581,34.581,0,0,0,10.977-.7.75.75,0,0,0,.435-.206c.477-.7.925-1.412,1.457-2.237m-2.964,4.6a39.313,39.313,0,0,1-13.369.007,4.557,4.557,0,0,0,3.788,2.421c1.925.076,3.858.074,5.783,0a4.575,4.575,0,0,0,3.8-2.429m-14.2-12.537a.939.939,0,0,0,.936-.925.917.917,0,0,0-1.834-.034.925.925,0,0,0,.9.959m15-.945a.93.93,0,0,0-.957-.9.9.9,0,0,0-.879.963.916.916,0,0,0,.914.882.96.96,0,0,0,.922-.946" transform="translate(818.867 5913.812)"/><path class="a" d="M165.8,633.446l-1.4-1.163A18.679,18.679,0,0,0,168.505,618a18.758,18.758,0,0,0-13.175-15.585,18.468,18.468,0,0,0-9.077-.432,18.846,18.846,0,0,0-8.243,3.908l-1.143-1.372A20.543,20.543,0,0,1,165.8,633.446" transform="translate(804.125 5942.236)"/><path class="a" d="M104.914,691.646l1.142,1.38A20.543,20.543,0,0,1,77.128,664.1l1.4,1.156A18.682,18.682,0,0,0,74.4,679.435a18.718,18.718,0,0,0,22.219,16.13,18.914,18.914,0,0,0,8.294-3.919" transform="translate(861.067 5885.394)"/><path class="a" d="M91.771,621.076l-1.222-1.286,1.282-1.137,1.2,1.222-1.256,1.2" transform="translate(845.031 5925.533)"/><path class="a" d="M385.343,619.944l1.249-1.127,1.172,1.19-1.2,1.187-1.22-1.251" transform="translate(584.682 5925.388)"/><path class="a" d="M90.467,913.949l1.239-1.256L92.96,914l-1.236,1.219-1.258-1.272" transform="translate(845.104 5665.849)"/><path class="a" d="M386.378,915.074l-1.259-1.216,1.288-1.271,1.2,1.351-1.229,1.136" transform="translate(584.88 5665.943)"/><rect class="a" width="1.785" height="1.804" transform="translate(953.163 6537.332)"/><rect class="a" width="1.813" height="1.77" transform="translate(928.788 6561.701)"/><rect class="a" width="1.823" height="1.787" transform="translate(977.506 6561.694)"/><rect class="a" width="1.765" height="1.824" transform="translate(953.173 6586.028)"/></g></svg>