<svg xmlns="http://www.w3.org/2000/svg" xmlns:xlink="http://www.w3.org/1999/xlink" width="58.155" height="58" viewBox="0 0 58.155 58"><defs><style>.a{fill:url(#a);}</style><linearGradient id="a" x1="1" x2="0" y2="1" gradientUnits="objectBoundingBox"><stop offset="0" stop-color="#dd8e43"/><stop offset="1" stop-color="#dc4552"/></linearGradient></defs><g transform="translate(-1617 -6006)"><path class="a" d="M750.154,9.257c-.61,1.924-1.227,3.845-1.82,5.775a2.933,2.933,0,0,0-.056.84q0,16.716,0,33.432c0,.283.006.566-.017.847a1.9,1.9,0,0,1-1.83,1.858c-.642.023-1.284,0-1.962,0a7.15,7.15,0,0,1-3.03,4.926,6.192,6.192,0,0,1-4.178,1.028c-2.833-.254-5.117-2.558-5.793-5.906H708.846c-1.333,4.2-3.574,6.121-6.9,5.924-3.079-.182-5.4-2.417-6.133-5.97-.581,0-1.18,0-1.78,0A1.945,1.945,0,0,1,692,49.863q0-16.9,0-33.8a5.8,5.8,0,0,1,5.856-6.077q10.761-.015,21.521,0h.722v-4c-.556,0-1.1,0-1.641,0-1.334-.008-2.057-.783-2.065-2.218,0-.626-.015-1.252.008-1.877A1.881,1.881,0,0,1,718.086.016,6.117,6.117,0,0,1,718.709,0h14.14c1.633,0,2.3.718,2.3,2.463,0,.5.012,1.01,0,1.514a1.937,1.937,0,0,1-1.928,2.012c-.583.011-1.166,0-1.784,0v4h.524c3.293,0,6.587.008,9.881-.014a1.475,1.475,0,0,0,.858-.324c1.083-.881,2.195-1.737,3.188-2.725,1.364-1.357,3.4-1.359,4.265,1Zm-9.422,2.785H701.424V43.983h39.309ZM699.472,12c-.515,0-1,0-1.488,0-2.573.008-4.1,1.621-4.1,4.352q-.006,13.5,0,26.993c0,.211.024.422.037.628h5.555ZM746.4,44v-.769c0-8.741-.022-17.482.026-26.223a2.629,2.629,0,0,0-1.125-2.5c-.907-.63-1.711-1.426-2.606-2.189V44Zm-3.753,7a4.7,4.7,0,1,0-4.694,5.013A4.879,4.879,0,0,0,742.652,51m-45.011-.041a4.691,4.691,0,1,0,4.742-4.952,4.86,4.86,0,0,0-4.742,4.952M708.822,50c4.119,0,8.168,0,12.216-.009a.445.445,0,0,0,.357-.2c.4-1.23.781-2.468,1.178-3.745H706.946A7.61,7.61,0,0,1,708.822,50m14.5,0c2.684,0,5.273,0,7.861-.015.118,0,.31-.206.339-.346a7.491,7.491,0,0,1,1.6-3.354,1.373,1.373,0,0,0,.13-.28c-2.826,0-5.587-.005-8.347.015a.586.586,0,0,0-.429.335c-.395,1.172-.755,2.358-1.159,3.646m9.9-47.967H718.286V3.957h14.936Zm-3.74,3.994h-7.436V9.945h7.436ZM742.591,46.03a7.6,7.6,0,0,1,1.818,3.69.42.42,0,0,0,.3.265c.543.027,1.087.012,1.658.012V46.03Zm-44.9.007h-3.766v3.925h1.906a7.6,7.6,0,0,1,1.86-3.925m49.184-32.721c.255-.816.482-1.537.705-2.26s.475-1.447.65-2.187a.878.878,0,0,0-.188-.733c-.132-.1-.5.009-.682.148-.57.431-1.1.92-1.648,1.387L744.156,11l2.718,2.32" transform="translate(925 6006.002)"/><path class="a" d="M864.007,111.162q4.514,0,9.027,0c1.557,0,2.268.7,2.268,2.242q0,8.09,0,16.18a1.952,1.952,0,0,1-2.225,2.23q-9.027,0-18.054,0A1.932,1.932,0,0,1,852.8,129.6q0-8.119,0-16.237a1.923,1.923,0,0,1,2.182-2.2q4.514,0,9.027,0m-9.323,18.724h18.681V113.092H854.684Z" transform="translate(788.602 5913.516)"/><path class="a" d="M777.411,96.8q0,4.086,0,8.172a1.9,1.9,0,0,1-2.143,2.124q-3.49,0-6.98,0a1.923,1.923,0,0,1-2.126-2.153q0-8.172,0-16.343a1.918,1.918,0,0,1,2.127-2.149q3.518-.005,7.037,0a1.883,1.883,0,0,1,2.086,2.065q.007,4.142,0,8.285m-1.889-8.421H768.1v5.538h7.425Zm0,13.109H768.1V105.2c2.409,0,4.771,0,7.132,0a2.186,2.186,0,0,0,.3-.043Zm.007-5.605h-2.747v3.66h2.747Zm-4.724.007h-2.719v3.675h2.719Z" transform="translate(862.093 5934.073)"/><rect class="a" width="1.778" height="1.813" transform="translate(1645.178 6020.067)"/><rect class="a" width="1.777" height="1.82" transform="translate(1648.929 6020.047)"/><rect class="a" width="1.781" height="1.804" transform="translate(1652.679 6020.066)"/><path class="a" d="M982.025,299.552a2.8,2.8,0,1,1-2.776-2.83,2.783,2.783,0,0,1,2.776,2.83m-2.816-.957a.94.94,0,0,0-.917.95.95.95,0,0,0,.95.92.966.966,0,0,0,.922-.952.954.954,0,0,0-.954-.917" transform="translate(683.736 5757.92)"/><path class="a" d="M744.253,302.33a2.8,2.8,0,1,1,2.836-2.783,2.812,2.812,0,0,1-2.836,2.783m.949-2.785a.933.933,0,0,0-.926-.948.915.915,0,0,0-.922.888.928.928,0,0,0,.891.98.943.943,0,0,0,.958-.92" transform="translate(883.046 5757.919)"/><rect class="a" width="9.332" height="1.789" transform="translate(1635.785 6053.742)"/><path class="a" d="M877.547,142.486a6.553,6.553,0,1,1,6.563,6.576,6.573,6.573,0,0,1-6.563-6.576m7.5,0v-3.46c0-1.263,0-1.239-1.26-1.216-.533.01-.65.212-.646.711.024,2.458.011,4.916.011,7.374,0,1.359,0,1.344,1.377,1.265.426-.024.533-.183.526-.59-.024-1.361-.009-2.723-.009-4.084m1.9-3.619v7.24a4.533,4.533,0,0,0,0-7.24m-5.684-.032a4.5,4.5,0,0,0,0,7.249Z" transform="translate(767.607 5892.515)"/><path class="a" d="M798.082,111.224a.938.938,0,0,1-.036,1.876.938.938,0,0,1,.036-1.876" transform="translate(835.821 5912.816)"/></g></svg>