<svg xmlns="http://www.w3.org/2000/svg" xmlns:xlink="http://www.w3.org/1999/xlink" width="33.725" height="33.661" viewBox="0 0 33.725 33.661"><defs><style>.a{fill:url(#a);}</style><linearGradient id="a" x1="1" x2="0.254" y2="0.827" gradientUnits="objectBoundingBox"><stop offset="0" stop-color="#dc4552"/><stop offset="1" stop-color="#dd8e43"/></linearGradient></defs><g transform="translate(-657.599 -815.404)"><path class="a" d="M975,200.789c-.419-.077-.841-.139-1.256-.233a12.835,12.835,0,0,1-3.375-1.513,37.635,37.635,0,0,1-15.459-16.376,7.3,7.3,0,0,1-.733-2.472.968.968,0,0,0-.058-.182v-1.446c.073-.374.131-.752.222-1.121a7.747,7.747,0,0,1,1.955-3.557c.471-.49.953-.97,1.441-1.443a1.872,1.872,0,0,1,2.735.011q2.6,2.583,5.192,5.183a1.861,1.861,0,0,1,0,2.731c-.675.689-1.365,1.364-2.047,2.047a1.346,1.346,0,0,0-.213,1.986c.3.455.628.9.943,1.345a.664.664,0,1,1-1.057.779c-.372-.515-.744-1.031-1.091-1.563a2.588,2.588,0,0,1,.328-3.313c.7-.714,1.412-1.411,2.116-2.117.4-.4.4-.66,0-1.061q-2.5-2.5-5.005-5c-.4-.4-.668-.407-1.059-.005a19.111,19.111,0,0,0-1.8,1.91,6.174,6.174,0,0,0-.637,6.777,36.559,36.559,0,0,0,8.463,11.173,34.822,34.822,0,0,0,8.225,5.506,6.468,6.468,0,0,0,7.218-1.124c.5-.471.987-.967,1.472-1.459a.586.586,0,0,0-.005-.945q-2.557-2.56-5.123-5.113a.592.592,0,0,0-.967.021c-.693.687-1.38,1.381-2.074,2.067a2.6,2.6,0,0,1-3.5.344c-.717-.485-1.41-1.005-2.1-1.522-.428-.318-.519-.709-.27-1.034.262-.343.638-.33,1.1.01.669.5,1.341.989,2.025,1.463a1.284,1.284,0,0,0,1.787-.158c.713-.7,1.412-1.41,2.122-2.112a1.883,1.883,0,0,1,2.829,0q2.554,2.54,5.1,5.09a1.883,1.883,0,0,1,0,2.828c-.485.492-.966.989-1.472,1.459a7.743,7.743,0,0,1-4.555,2.078,1.621,1.621,0,0,0-.221.054Z" transform="translate(-296.517 648.276)"/><path class="a" d="M1250.823,114.8a2.008,2.008,0,0,1-.341.336c-.446.269-.925-.058-.983-.612a19.578,19.578,0,0,0-.4-3.082,12.9,12.9,0,0,0-9.894-9.71,18.619,18.619,0,0,0-2.8-.338c-.474-.045-.772-.276-.766-.675s.309-.647.787-.645a14.559,14.559,0,0,1,14.114,11.668c.117.62.188,1.249.28,1.874Z" transform="translate(-559.498 715.334)"/><path class="a" d="M1236.584,160.113a10.555,10.555,0,0,1,10.158,9.083c.06.444.091.893.109,1.341a.664.664,0,0,1-.632.766c-.4.014-.66-.277-.681-.752a9.132,9.132,0,0,0-5.143-8.162,8.786,8.786,0,0,0-3.826-.967c-.11,0-.22,0-.329-.011a.651.651,0,0,1-.049-1.294,2.514,2.514,0,0,1,.394,0" transform="translate(-559.491 659.252)"/><path class="a" d="M1242.882,226.461a2.621,2.621,0,0,1,0,.4.64.64,0,0,1-.683.574.648.648,0,0,1-.613-.613,10.459,10.459,0,0,0-.164-1.266,5.265,5.265,0,0,0-4.944-4.046c-.055,0-.11,0-.164-.007a.653.653,0,0,1-.676-.655.638.638,0,0,1,.713-.648,8.853,8.853,0,0,1,1.591.214,6.591,6.591,0,0,1,4.944,6.047" transform="translate(-559.491 603.118)"/><path class="a" d="M1238.943,282.846a.658.658,0,0,1-.573.779c-.394.045-.67-.2-.733-.66a1.317,1.317,0,0,0-1.3-1.305c-.46-.062-.71-.334-.668-.727s.338-.6.809-.574a2.614,2.614,0,0,1,2.467,2.488" transform="translate(-559.517 546.924)"/><path class="a" d="M1122.921,414.956a.653.653,0,0,1-.655.642.662.662,0,0,1-.647-.655.646.646,0,0,1,.677-.649.633.633,0,0,1,.625.663" transform="translate(-452.986 421.809)"/></g></svg>